<svg xmlns="http://www.w3.org/2000/svg" width="456" height="430" viewBox="0 0 456 440" fill="none">
<g filter="url(#filter0_d)">
<path d="M366.514 209.761L365.585 207.698H363.323H92.9892H90.7571L89.8157 209.722L79.8265 231.199L79.1399 232.675L79.8265 234.151L89.8157 255.628L90.7571 257.651H92.9892H363.323H365.585L366.514 255.589L376.191 234.113L376.839 232.675L376.191 231.237L366.514 209.761Z" fill="#FE424D" stroke="white" stroke-width="7"/>
<path d="M106.272 290.091L230.356 352L349.729 290.091V48H106.272V290.091Z" fill="#FBFBFB"/>
<path d="M349.728 48L104.539 293.423L232.526 355.705L351.46 295.877L349.728 48Z" fill="#EAEAEA"/>
<path d="M98.8647 128.36V294.343L103.235 296.491L226.54 358.159L230.286 360L234.032 358.159L352.966 296.491L357.336 294.343V40H98.8647V128.36ZM106.272 289.333L106.271 47.977H349.728V289.333L230.286 351.409L106.272 289.333Z" fill="white"/>
<path d="M228.155 51.8553C229.392 51.8553 230.629 51.8553 231.866 52.1593L228.155 59.1508C222.587 58.8468 217.639 63.1026 217.329 68.5742C217.02 74.0459 221.35 78.9096 226.917 79.2136H228.155C230.629 79.2136 233.103 78.3016 234.959 76.7817L238.98 83.4693C235.887 85.5972 232.175 86.8131 228.155 86.8131C218.257 87.1171 209.907 79.8216 209.597 70.0942C209.288 60.3668 216.711 52.1593 226.608 51.8553H228.155ZM240.835 66.7504L245.475 74.3499L240.835 81.6454L236.505 74.3499H227.536L232.175 66.7504H240.835ZM233.412 64.0145C233.412 62.7986 233.722 61.5827 234.34 60.6707C234.959 59.7588 236.196 58.8468 237.124 58.2389L237.743 57.9349C238.98 57.3269 239.289 57.023 239.289 56.415C239.289 55.807 238.361 55.1991 237.743 55.1991C236.505 55.1991 235.577 55.807 234.959 57.023L233.412 55.503C233.722 54.8951 234.34 54.2871 234.959 53.6792C235.887 53.0712 236.815 53.0712 237.743 53.0712C238.67 53.0712 239.908 53.3752 240.526 53.9831C241.145 54.5911 241.763 55.5031 241.763 56.415C241.763 57.9349 240.835 59.1508 238.98 59.7588L238.052 60.3668C237.124 60.9747 236.505 61.2787 236.196 62.1906H241.763V64.3185L233.412 64.0145ZM228.155 102.012L257.537 85.5972V40H198.463V85.2932L228.155 102.012Z" fill="#FF492C"/>
<path d="M363.323 211.198H92.9892L83 232.675L92.9892 254.151H363.323L373 232.675L363.323 211.198Z" fill="#FF492C"/>
<path d="M141.656 187.458C141.468 187.458 141.312 187.396 141.187 187.274C141.062 187.131 141 186.967 141 186.783V149.475C141 149.291 141.062 149.127 141.187 148.984C141.312 148.861 141.468 148.8 141.656 148.8H148.242C148.429 148.8 148.586 148.861 148.71 148.984C148.856 149.127 148.929 149.291 148.929 149.475V180.493C148.929 180.677 149.023 180.769 149.21 180.769H167.565C167.752 180.769 167.919 180.831 168.065 180.954C168.189 181.097 168.252 181.26 168.252 181.444V186.783C168.252 186.967 168.189 187.131 168.065 187.274C167.919 187.396 167.752 187.458 167.565 187.458H141.656ZM198.188 170.338C198.417 171.729 198.49 173.294 198.407 175.032C198.386 175.482 198.147 175.707 197.689 175.707H180.333C180.104 175.707 180.031 175.799 180.114 175.983C180.218 176.72 180.416 177.456 180.707 178.192C181.685 180.238 183.673 181.26 186.67 181.26C189.063 181.24 190.957 180.289 192.351 178.407C192.497 178.182 192.663 178.07 192.85 178.07C192.975 178.07 193.111 178.141 193.256 178.284L197.283 182.211C197.47 182.396 197.564 182.559 197.564 182.702C197.564 182.784 197.491 182.938 197.346 183.163C196.118 184.656 194.526 185.822 192.569 186.66C190.634 187.478 188.501 187.887 186.17 187.887C182.944 187.887 180.218 187.171 177.991 185.74C175.765 184.308 174.162 182.303 173.184 179.726C172.393 177.885 171.998 175.472 171.998 172.486C171.998 170.461 172.279 168.681 172.841 167.147C173.715 164.529 175.224 162.443 177.367 160.888C179.531 159.354 182.091 158.587 185.046 158.587C188.792 158.587 191.799 159.651 194.068 161.778C196.336 163.905 197.71 166.759 198.188 170.338ZM185.109 165.306C182.736 165.306 181.175 166.39 180.426 168.559C180.281 169.049 180.156 169.643 180.052 170.338C180.052 170.522 180.145 170.614 180.333 170.614H190.041C190.27 170.614 190.343 170.522 190.259 170.338C190.072 169.274 189.978 168.763 189.978 168.804C189.646 167.699 189.063 166.84 188.23 166.227C187.377 165.613 186.337 165.306 185.109 165.306ZM214.827 158.618C217.262 158.618 219.436 159.037 221.351 159.876C223.266 160.694 224.754 161.829 225.815 163.281C226.876 164.713 227.407 166.309 227.407 168.068V186.783C227.407 186.967 227.344 187.131 227.22 187.274C227.095 187.396 226.939 187.458 226.751 187.458H220.165C219.977 187.458 219.821 187.396 219.696 187.274C219.551 187.131 219.478 186.967 219.478 186.783V184.973C219.478 184.87 219.447 184.799 219.384 184.758C219.301 184.717 219.228 184.748 219.166 184.85C217.584 186.875 215.056 187.887 211.58 187.887C208.646 187.887 206.284 187.192 204.494 185.801C202.684 184.41 201.778 182.344 201.778 179.604C201.778 176.781 202.798 174.582 204.837 173.007C206.856 171.453 209.738 170.675 213.484 170.675H219.197C219.384 170.675 219.478 170.583 219.478 170.399V169.172C219.478 167.965 219.103 167.014 218.354 166.319C217.605 165.644 216.481 165.306 214.983 165.306C213.838 165.306 212.881 165.511 212.111 165.92C211.341 166.329 210.841 166.902 210.612 167.638C210.508 168.047 210.269 168.231 209.895 168.19L203.089 167.301C202.632 167.219 202.423 167.055 202.465 166.81C202.611 165.255 203.235 163.854 204.338 162.606C205.441 161.359 206.908 160.387 208.74 159.692C210.55 158.976 212.579 158.618 214.827 158.618ZM213.703 182.089C215.305 182.089 216.668 181.669 217.792 180.831C218.916 179.992 219.478 178.908 219.478 177.579V175.584C219.478 175.4 219.384 175.308 219.197 175.308H215.17C213.484 175.308 212.163 175.625 211.206 176.259C210.248 176.873 209.77 177.752 209.77 178.898C209.77 179.9 210.123 180.677 210.831 181.23C211.539 181.802 212.496 182.089 213.703 182.089ZM250.913 149.475C250.913 149.291 250.975 149.127 251.1 148.984C251.225 148.861 251.381 148.8 251.568 148.8H258.155C258.342 148.8 258.498 148.861 258.623 148.984C258.748 149.127 258.811 149.291 258.811 149.475V186.783C258.811 186.967 258.748 187.131 258.623 187.274C258.498 187.396 258.342 187.458 258.155 187.458H251.568C251.381 187.458 251.225 187.396 251.1 187.274C250.975 187.131 250.913 186.967 250.913 186.783V184.973C250.913 184.87 250.871 184.809 250.788 184.789C250.705 184.768 250.632 184.789 250.569 184.85C248.988 186.875 246.834 187.887 244.108 187.887C241.485 187.887 239.227 187.171 237.334 185.74C235.44 184.308 234.077 182.344 233.244 179.849C232.62 177.926 232.308 175.697 232.308 173.161C232.308 170.543 232.641 168.262 233.307 166.319C234.181 163.946 235.544 162.075 237.396 160.704C239.248 159.313 241.537 158.618 244.264 158.618C246.969 158.618 249.071 159.538 250.569 161.379C250.632 161.502 250.705 161.543 250.788 161.502C250.871 161.461 250.913 161.389 250.913 161.287V149.475ZM249.727 178.837C250.476 177.487 250.85 175.625 250.85 173.253C250.85 170.798 250.434 168.865 249.602 167.454C248.748 166.022 247.5 165.306 245.856 165.306C244.087 165.306 242.755 166.022 241.86 167.454C240.924 168.906 240.455 170.86 240.455 173.314C240.455 175.523 240.851 177.364 241.642 178.837C242.578 180.432 243.962 181.23 245.793 181.23C247.479 181.23 248.79 180.432 249.727 178.837ZM290.339 170.338C290.568 171.729 290.641 173.294 290.558 175.032C290.537 175.482 290.297 175.707 289.84 175.707H272.483C272.254 175.707 272.182 175.799 272.265 175.983C272.369 176.72 272.567 177.456 272.858 178.192C273.836 180.238 275.823 181.26 278.82 181.26C281.214 181.24 283.107 180.289 284.502 178.407C284.647 178.182 284.814 178.07 285.001 178.07C285.126 178.07 285.261 178.141 285.407 178.284L289.434 182.211C289.621 182.396 289.715 182.559 289.715 182.702C289.715 182.784 289.642 182.938 289.496 183.163C288.268 184.656 286.676 185.822 284.72 186.66C282.785 187.478 280.652 187.887 278.321 187.887C275.095 187.887 272.369 187.171 270.142 185.74C267.915 184.308 266.313 182.303 265.335 179.726C264.544 177.885 264.149 175.472 264.149 172.486C264.149 170.461 264.429 168.681 264.991 167.147C265.865 164.529 267.374 162.443 269.518 160.888C271.682 159.354 274.242 158.587 277.197 158.587C280.943 158.587 283.95 159.651 286.219 161.778C288.487 163.905 289.86 166.759 290.339 170.338ZM277.259 165.306C274.887 165.306 273.326 166.39 272.577 168.559C272.431 169.049 272.306 169.643 272.202 170.338C272.202 170.522 272.296 170.614 272.483 170.614H282.192C282.421 170.614 282.493 170.522 282.41 170.338C282.223 169.274 282.129 168.763 282.129 168.804C281.796 167.699 281.214 166.84 280.381 166.227C279.528 165.613 278.487 165.306 277.259 165.306ZM309.849 158.679C311.202 158.679 312.263 158.935 313.033 159.446C313.346 159.61 313.46 159.886 313.377 160.275L312.191 166.595C312.17 167.024 311.91 167.147 311.41 166.963C310.848 166.779 310.193 166.687 309.443 166.687C309.152 166.687 308.746 166.728 308.226 166.81C306.873 166.912 305.729 167.393 304.792 168.252C303.856 169.131 303.388 170.287 303.388 171.719V186.783C303.388 186.967 303.325 187.131 303.2 187.274C303.055 187.396 302.888 187.458 302.701 187.458H296.145C295.958 187.458 295.792 187.396 295.646 187.274C295.521 187.131 295.459 186.967 295.459 186.783V159.722C295.459 159.538 295.521 159.385 295.646 159.262C295.792 159.14 295.958 159.078 296.145 159.078H302.701C302.888 159.078 303.055 159.14 303.2 159.262C303.325 159.385 303.388 159.538 303.388 159.722V161.839C303.388 161.942 303.419 162.013 303.481 162.054C303.564 162.095 303.627 162.075 303.668 161.993C305.208 159.784 307.269 158.679 309.849 158.679Z" fill="#252530"/>
<path d="M185.202 244.886C183.579 244.886 182.163 244.63 180.956 244.119C179.749 243.607 178.813 242.892 178.147 241.971C177.502 241.051 177.179 239.967 177.179 238.719V237.952C177.179 237.85 177.221 237.758 177.304 237.676C177.366 237.615 177.45 237.584 177.554 237.584H180.332C180.436 237.584 180.53 237.615 180.613 237.676C180.675 237.758 180.707 237.85 180.707 237.952V238.535C180.707 239.476 181.133 240.253 181.987 240.867C182.84 241.501 184.005 241.818 185.483 241.818C186.752 241.818 187.71 241.552 188.355 241.02C189 240.488 189.322 239.803 189.322 238.964C189.322 238.392 189.145 237.901 188.792 237.492C188.438 237.103 187.938 236.745 187.293 236.418C186.627 236.091 185.639 235.682 184.328 235.191C182.85 234.659 181.654 234.158 180.738 233.687C179.822 233.217 179.063 232.573 178.459 231.755C177.835 230.957 177.523 229.955 177.523 228.748C177.523 226.948 178.189 225.526 179.52 224.483C180.852 223.44 182.632 222.918 184.858 222.918C186.419 222.918 187.803 223.184 189.01 223.716C190.196 224.248 191.123 224.995 191.788 225.956C192.454 226.897 192.787 227.991 192.787 229.239V229.76C192.787 229.863 192.746 229.955 192.663 230.036C192.6 230.098 192.517 230.128 192.413 230.128H189.603C189.499 230.128 189.416 230.098 189.354 230.036C189.27 229.955 189.229 229.863 189.229 229.76V229.423C189.229 228.461 188.833 227.654 188.042 226.999C187.231 226.324 186.117 225.987 184.702 225.987C183.558 225.987 182.673 226.222 182.049 226.692C181.404 227.163 181.081 227.827 181.081 228.686C181.081 229.3 181.248 229.801 181.581 230.19C181.914 230.578 182.413 230.926 183.079 231.233C183.745 231.56 184.775 231.969 186.17 232.46C187.647 233.012 188.833 233.514 189.728 233.964C190.602 234.414 191.362 235.037 192.007 235.835C192.631 236.653 192.943 237.666 192.943 238.872C192.943 240.713 192.246 242.176 190.852 243.26C189.478 244.344 187.595 244.886 185.202 244.886ZM205.368 223.133C206.679 223.133 207.834 223.399 208.833 223.931C209.832 224.463 210.602 225.209 211.143 226.171C211.704 227.152 211.985 228.277 211.985 229.545C211.985 230.793 211.704 231.898 211.143 232.859C210.581 233.82 209.79 234.557 208.77 235.068C207.73 235.6 206.533 235.866 205.18 235.866H200.186C200.082 235.866 200.03 235.917 200.03 236.019V244.272C200.03 244.375 199.998 244.456 199.936 244.518C199.853 244.6 199.759 244.64 199.655 244.64H196.783C196.679 244.64 196.596 244.6 196.533 244.518C196.45 244.456 196.408 244.375 196.408 244.272V223.501C196.408 223.399 196.45 223.307 196.533 223.225C196.596 223.164 196.679 223.133 196.783 223.133H205.368ZM204.837 232.982C205.898 232.982 206.751 232.675 207.397 232.061C208.042 231.448 208.364 230.64 208.364 229.638C208.364 228.615 208.042 227.786 207.397 227.152C206.751 226.518 205.898 226.201 204.837 226.201H200.186C200.082 226.201 200.03 226.252 200.03 226.355V232.828C200.03 232.931 200.082 232.982 200.186 232.982H204.837ZM227.438 244.64C227.229 244.64 227.084 244.548 227.001 244.364L222.88 235.528C222.838 235.446 222.776 235.406 222.693 235.406H218.947C218.843 235.406 218.791 235.457 218.791 235.559V244.272C218.791 244.375 218.749 244.456 218.666 244.518C218.603 244.6 218.52 244.64 218.416 244.64H215.544C215.44 244.64 215.357 244.6 215.294 244.518C215.211 244.456 215.17 244.375 215.17 244.272V223.532C215.17 223.43 215.211 223.348 215.294 223.287C215.357 223.205 215.44 223.164 215.544 223.164H224.129C225.398 223.164 226.522 223.42 227.5 223.931C228.478 224.463 229.238 225.199 229.779 226.14C230.32 227.101 230.59 228.196 230.59 229.423C230.59 230.834 230.226 232.031 229.498 233.012C228.749 234.015 227.718 234.71 226.407 235.099C226.366 235.099 226.335 235.119 226.314 235.16C226.293 235.201 226.293 235.242 226.314 235.283L230.715 244.211C230.757 244.293 230.778 244.354 230.778 244.395C230.778 244.559 230.663 244.64 230.434 244.64H227.438ZM218.947 226.232C218.843 226.232 218.791 226.283 218.791 226.385V232.491C218.791 232.593 218.843 232.644 218.947 232.644H223.629C224.628 232.644 225.429 232.348 226.033 231.755C226.657 231.182 226.969 230.415 226.969 229.453C226.969 228.492 226.657 227.715 226.033 227.122C225.429 226.529 224.628 226.232 223.629 226.232H218.947ZM234.68 244.64C234.576 244.64 234.482 244.6 234.399 244.518C234.336 244.456 234.305 244.375 234.305 244.272V223.532C234.305 223.43 234.336 223.348 234.399 223.287C234.482 223.205 234.576 223.164 234.68 223.164H237.552C237.656 223.164 237.739 223.205 237.801 223.287C237.885 223.348 237.926 223.43 237.926 223.532V244.272C237.926 244.375 237.885 244.456 237.801 244.518C237.739 244.6 237.656 244.64 237.552 244.64H234.68ZM255.189 223.532C255.189 223.43 255.231 223.348 255.314 223.287C255.376 223.205 255.459 223.164 255.563 223.164H258.435C258.539 223.164 258.633 223.205 258.716 223.287C258.779 223.348 258.81 223.43 258.81 223.532V244.272C258.81 244.375 258.779 244.456 258.716 244.518C258.633 244.6 258.539 244.64 258.435 244.64H255.657C255.449 244.64 255.303 244.559 255.22 244.395L246.23 229.914C246.188 229.852 246.147 229.822 246.105 229.822C246.063 229.842 246.042 229.893 246.042 229.975L246.105 244.272C246.105 244.375 246.063 244.456 245.98 244.518C245.918 244.6 245.834 244.64 245.73 244.64H242.858C242.754 244.64 242.671 244.6 242.609 244.518C242.525 244.456 242.484 244.375 242.484 244.272V223.532C242.484 223.43 242.525 223.348 242.609 223.287C242.671 223.205 242.754 223.164 242.858 223.164H245.637C245.845 223.164 245.99 223.246 246.074 223.409L255.033 237.891C255.074 237.952 255.116 237.972 255.158 237.952C255.199 237.952 255.22 237.911 255.22 237.829L255.189 223.532ZM270.672 244.886C269.111 244.886 267.738 244.589 266.552 243.996C265.365 243.383 264.45 242.523 263.805 241.419C263.159 240.314 262.837 239.046 262.837 237.615V230.19C262.837 228.738 263.159 227.459 263.805 226.355C264.45 225.271 265.365 224.422 266.552 223.808C267.738 223.215 269.111 222.918 270.672 222.918C272.212 222.918 273.575 223.215 274.762 223.808C275.927 224.401 276.832 225.209 277.477 226.232C278.123 227.255 278.445 228.41 278.445 229.699V229.944C278.445 230.047 278.414 230.128 278.351 230.19C278.268 230.272 278.175 230.313 278.07 230.313H275.23C275.126 230.313 275.042 230.272 274.98 230.19C274.897 230.128 274.855 230.047 274.855 229.944V229.791C274.855 228.686 274.47 227.776 273.7 227.06C272.951 226.344 271.942 225.987 270.672 225.987C269.403 225.987 268.383 226.365 267.613 227.122C266.843 227.858 266.458 228.84 266.458 230.067V237.737C266.458 238.964 266.864 239.956 267.675 240.713C268.487 241.45 269.538 241.818 270.828 241.818C272.077 241.818 273.065 241.491 273.794 240.836C274.501 240.202 274.855 239.322 274.855 238.197V236.295C274.855 236.193 274.803 236.142 274.699 236.142H270.859C270.755 236.142 270.662 236.101 270.579 236.019C270.516 235.958 270.485 235.876 270.485 235.774V233.503C270.485 233.401 270.516 233.319 270.579 233.258C270.662 233.176 270.755 233.135 270.859 233.135H278.07C278.175 233.135 278.268 233.176 278.351 233.258C278.414 233.319 278.445 233.401 278.445 233.503V237.43C278.445 239.783 277.748 241.613 276.354 242.922C274.938 244.231 273.045 244.886 270.672 244.886Z" fill="white"/>
<path d="M187.076 300.05C187.013 300.111 186.992 300.173 187.013 300.234C187.055 300.295 187.117 300.326 187.2 300.326H199.468C199.614 300.326 199.739 300.377 199.843 300.479C199.968 300.582 200.03 300.704 200.03 300.848V305.174C200.03 305.317 199.968 305.439 199.843 305.542C199.739 305.644 199.614 305.695 199.468 305.695H179.115C178.949 305.695 178.814 305.644 178.71 305.542C178.606 305.439 178.554 305.317 178.554 305.174V301.062C178.554 300.796 178.647 300.571 178.834 300.387C180.312 298.976 181.821 297.432 183.361 295.755C184.901 294.077 185.869 293.034 186.264 292.625C187.096 291.643 187.95 290.702 188.824 289.803C191.571 286.816 192.944 284.597 192.944 283.145C192.944 282.102 192.57 281.243 191.82 280.568C191.071 279.913 190.093 279.586 188.886 279.586C187.679 279.586 186.701 279.913 185.952 280.568C185.182 281.243 184.797 282.132 184.797 283.237V284.341C184.797 284.485 184.745 284.607 184.641 284.71C184.537 284.812 184.412 284.863 184.266 284.863H178.928C178.782 284.863 178.658 284.812 178.554 284.71C178.429 284.607 178.366 284.485 178.366 284.341V282.255C178.47 280.66 178.991 279.238 179.927 277.99C180.864 276.763 182.102 275.822 183.642 275.168C185.203 274.513 186.951 274.186 188.886 274.186C191.03 274.186 192.892 274.585 194.474 275.383C196.055 276.16 197.273 277.213 198.126 278.543C199 279.893 199.437 281.376 199.437 282.991C199.437 284.239 199.115 285.517 198.47 286.826C197.845 288.136 196.898 289.547 195.629 291.06C194.692 292.206 193.683 293.351 192.601 294.497C191.519 295.622 189.906 297.248 187.762 299.375L187.076 300.05ZM214.733 306.186C211.404 306.186 208.781 305.276 206.867 303.455C204.931 301.635 203.964 299.15 203.964 296V284.249C203.964 281.161 204.931 278.717 206.867 276.917C208.781 275.096 211.404 274.186 214.733 274.186C218.042 274.186 220.675 275.096 222.631 276.917C224.566 278.717 225.534 281.161 225.534 284.249V296C225.534 299.15 224.566 301.635 222.631 303.455C220.675 305.276 218.042 306.186 214.733 306.186ZM214.733 300.817C216.086 300.817 217.158 300.408 217.949 299.59C218.76 298.772 219.166 297.677 219.166 296.307V284.065C219.166 282.715 218.76 281.631 217.949 280.813C217.158 279.995 216.086 279.586 214.733 279.586C213.401 279.586 212.34 279.995 211.549 280.813C210.738 281.631 210.332 282.715 210.332 284.065V296.307C210.332 297.677 210.738 298.772 211.549 299.59C212.34 300.408 213.401 300.817 214.733 300.817ZM238.208 300.05C238.146 300.111 238.135 300.173 238.177 300.234C238.198 300.295 238.26 300.326 238.364 300.326H250.632C250.778 300.326 250.903 300.377 251.007 300.479C251.111 300.582 251.163 300.704 251.163 300.848V305.174C251.163 305.317 251.111 305.439 251.007 305.542C250.903 305.644 250.778 305.695 250.632 305.695H230.248C230.102 305.695 229.977 305.644 229.873 305.542C229.769 305.439 229.717 305.317 229.717 305.174V301.062C229.717 300.796 229.8 300.571 229.967 300.387C231.465 298.976 232.974 297.432 234.493 295.755C236.033 294.077 237.001 293.034 237.396 292.625C238.25 291.643 239.113 290.702 239.987 289.803C242.734 286.816 244.108 284.597 244.108 283.145C244.108 282.102 243.733 281.243 242.984 280.568C242.214 279.913 241.226 279.586 240.019 279.586C238.811 279.586 237.833 279.913 237.084 280.568C236.335 281.243 235.96 282.132 235.96 283.237V284.341C235.96 284.485 235.908 284.607 235.804 284.71C235.7 284.812 235.565 284.863 235.399 284.863H230.061C229.915 284.863 229.79 284.812 229.686 284.71C229.582 284.607 229.53 284.485 229.53 284.341V282.255C229.613 280.66 230.123 279.238 231.059 277.99C231.996 276.763 233.245 275.822 234.805 275.168C236.366 274.513 238.104 274.186 240.019 274.186C242.162 274.186 244.025 274.585 245.606 275.383C247.209 276.16 248.437 277.213 249.29 278.543C250.143 279.893 250.57 281.376 250.57 282.991C250.57 284.239 250.257 285.517 249.633 286.826C248.988 288.136 248.031 289.547 246.761 291.06C245.825 292.206 244.815 293.351 243.733 294.497C242.651 295.622 241.038 297.248 238.895 299.375L238.208 300.05ZM265.866 306.186C262.557 306.186 259.935 305.276 257.999 303.455C256.064 301.635 255.096 299.15 255.096 296V284.249C255.096 281.161 256.064 278.717 257.999 276.917C259.935 275.096 262.557 274.186 265.866 274.186C269.195 274.186 271.828 275.096 273.763 276.917C275.72 278.717 276.698 281.161 276.698 284.249V296C276.698 299.15 275.72 301.635 273.763 303.455C271.828 305.276 269.195 306.186 265.866 306.186ZM265.866 300.817C267.239 300.817 268.321 300.408 269.112 299.59C269.903 298.772 270.298 297.677 270.298 296.307V284.065C270.298 282.715 269.903 281.631 269.112 280.813C268.321 279.995 267.239 279.586 265.866 279.586C264.555 279.586 263.493 279.995 262.682 280.813C261.891 281.631 261.495 282.715 261.495 284.065V296.307C261.495 297.677 261.891 298.772 262.682 299.59C263.493 300.408 264.555 300.817 265.866 300.817Z" fill="#252530"/>
</g>
<defs>
<filter id="filter0_d" x="0.279785" y="-10" width="455.398" height="470" filterUnits="userSpaceOnUse" color-interpolation-filters="sRGB">
<feFlood flood-opacity="0" result="BackgroundImageFix"/>
<feColorMatrix in="SourceAlpha" type="matrix" values="0 0 0 0 0 0 0 0 0 0 0 0 0 0 0 0 0 0 127 0"/>
<feOffset dy="25"/>
<feGaussianBlur stdDeviation="37.5"/>
<feColorMatrix type="matrix" values="0 0 0 0 0.0627451 0 0 0 0 0.117647 0 0 0 0 0.211765 0 0 0 0.25 0"/>
<feBlend mode="normal" in2="BackgroundImageFix" result="effect1_dropShadow"/>
<feBlend mode="normal" in="SourceGraphic" in2="effect1_dropShadow" result="shape"/>
</filter>
</defs>
</svg>