<svg width="708" height="516" fill="none" xmlns="http://www.w3.org/2000/svg"><g filter="url(#filter0_d)"><path fill-rule="evenodd" clip-rule="evenodd" d="M62 34c-6.627 0-12 5.373-12 12V436.949c0 6.627 5.373 12 12 12h440.876c6.627 0 12-5.373 12-12v-74.101c0-6.741 5.464-12.205 12.204-12.205H646c6.627 0 12-5.372 12-12V151.606c0-5.515-4.471-9.986-9.985-9.986h-93.197c-6.741 0-12.205-5.464-12.205-12.204V46c0-6.627-5.372-12-12-12H62z" fill="#fff"/></g><g opacity=".97"><path d="M107.006 118.617c-8.255 0-15.222-2.707-20.903-8.121l6.657-10.318c4.615 3.816 9.431 5.724 14.446 5.724 3.15 0 4.726-.865 4.726-2.596 0-1.154-1.243-2.174-3.728-3.062a57.998 57.998 0 00-3.062-.932c-3.462-1.065-6.014-1.997-7.656-2.796-5.503-2.707-8.254-7.034-8.254-12.98 0-4.528 1.797-8.278 5.392-11.251 3.55-2.974 8.144-4.46 13.78-4.46 6.745 0 12.825 1.997 18.24 5.991l-6.125 10.718c-1.375-1.021-3.284-1.909-5.725-2.663-2.396-.754-4.46-1.132-6.191-1.132-1.508 0-2.662.222-3.461.666-.755.444-1.132 1.02-1.132 1.73 0 .755.311 1.354.932 1.798.621.4 1.598.799 2.929 1.198 4.66 1.42 7.811 2.463 9.453 3.13 6.657 2.573 9.985 6.989 9.985 13.246 0 4.66-1.841 8.521-5.525 11.584-3.683 3.017-8.609 4.526-14.778 4.526zM158.5 83.469v-2.73h12.315v37.013H158.5v-2.596c-3.018 2.352-6.48 3.528-10.385 3.528-5.281 0-9.608-1.864-12.981-5.592-3.373-3.772-5.059-8.432-5.059-13.98 0-5.503 1.708-10.096 5.125-13.78 3.418-3.683 7.722-5.525 12.915-5.525 4.083 0 7.544 1.22 10.385 3.662zm-7.856 23.299c2.131 0 3.928-.732 5.393-2.197 1.464-1.509 2.196-3.306 2.196-5.392 0-2.041-.732-3.794-2.196-5.259-1.465-1.465-3.262-2.197-5.393-2.197-2.13 0-3.927.733-5.392 2.197-1.42 1.465-2.13 3.218-2.13 5.259 0 2.086.732 3.883 2.197 5.392 1.464 1.465 3.24 2.197 5.325 2.197zm43.919-6.457l6.59-19.572h14.313l-15.844 36.946h-10.651l-15.71-36.946h14.379l6.923 19.572zm58.771-2.064c0 1.553-.134 3.262-.4 5.126h-25.629c1.376 3.106 4.061 4.66 8.055 4.66 3.905 0 7.478-1.065 10.717-3.196l5.06 8.654c-4.749 3.373-10.23 5.06-16.443 5.06-6.568 0-11.65-1.842-15.244-5.526-3.595-3.727-5.392-8.321-5.392-13.78 0-5.591 1.841-10.229 5.525-13.912 3.772-3.684 8.61-5.526 14.512-5.526 5.547 0 10.141 1.665 13.78 4.993 3.639 3.24 5.459 7.722 5.459 13.447zm-19.239-8.188c-3.462 0-5.792 1.531-6.99 4.593h13.78c-1.109-3.062-3.373-4.593-6.79-4.593zm61.594-10.252c5.237 0 9.542 1.864 12.915 5.592 3.373 3.684 5.059 8.277 5.059 13.78 0 5.459-1.686 10.074-5.059 13.846-3.373 3.773-7.656 5.659-12.848 5.659-3.905 0-7.212-1.154-9.919-3.462v17.774h-13.114V80.739h12.915v2.73c2.84-2.441 6.19-3.662 10.051-3.662zm-2.662 26.894c2.13 0 3.883-.688 5.259-2.063 1.375-1.42 2.063-3.196 2.063-5.326 0-2.13-.688-3.883-2.063-5.259-1.376-1.42-3.129-2.13-5.259-2.13-2.086 0-3.839.71-5.259 2.13-1.376 1.42-2.064 3.173-2.064 5.26 0 2.085.688 3.838 2.064 5.258 1.42 1.42 3.173 2.13 5.259 2.13zm62.553-8.454c0 1.553-.133 3.262-.4 5.126h-25.629c1.376 3.106 4.061 4.66 8.055 4.66 3.906 0 7.478-1.065 10.718-3.196l5.059 8.654c-4.749 3.373-10.229 5.06-16.443 5.06-6.568 0-11.649-1.842-15.244-5.526-3.595-3.727-5.392-8.321-5.392-13.78 0-5.591 1.842-10.229 5.525-13.912 3.772-3.684 8.61-5.526 14.512-5.526 5.548 0 10.141 1.665 13.78 4.993 3.639 3.24 5.459 7.722 5.459 13.447zm-19.239-8.188c-3.461 0-5.791 1.531-6.989 4.593h13.779c-1.109-3.062-3.372-4.593-6.79-4.593zm62.367 9.187c0 5.503-1.886 10.14-5.659 13.913-3.772 3.772-8.676 5.658-14.711 5.658-6.036 0-10.94-1.886-14.712-5.658-3.728-3.773-5.592-8.41-5.592-13.913s1.864-10.141 5.592-13.913c3.772-3.773 8.676-5.659 14.712-5.659 6.035 0 10.939 1.886 14.711 5.659 3.773 3.772 5.659 8.41 5.659 13.913zm-20.37 7.322c2.085 0 3.816-.688 5.192-2.063 1.42-1.421 2.13-3.196 2.13-5.326 0-2.041-.71-3.75-2.13-5.126-1.376-1.42-3.107-2.13-5.192-2.13-2.042 0-3.773.71-5.193 2.13-1.376 1.376-2.063 3.085-2.063 5.126 0 2.13.687 3.905 2.063 5.326 1.42 1.375 3.151 2.063 5.193 2.063zm47.422-26.76c5.237 0 9.541 1.863 12.914 5.591 3.373 3.684 5.059 8.277 5.059 13.78 0 5.459-1.686 10.074-5.059 13.846-3.373 3.773-7.655 5.659-12.848 5.659-3.905 0-7.211-1.154-9.919-3.462v17.774h-13.114V80.739h12.915v2.73c2.84-2.441 6.191-3.662 10.052-3.662zm-2.663 26.893c2.13 0 3.883-.688 5.259-2.063 1.376-1.42 2.064-3.196 2.064-5.326 0-2.13-.688-3.883-2.064-5.259-1.376-1.42-3.129-2.13-5.259-2.13-2.086 0-3.839.71-5.259 2.13-1.376 1.42-2.064 3.173-2.064 5.26 0 2.085.688 3.838 2.064 5.258 1.42 1.42 3.173 2.13 5.259 2.13zm37.856-39.808v50.859h-13.048v-50.86h13.048zm43.415 31.354c0 1.553-.133 3.262-.399 5.126H478.34c1.376 3.106 4.061 4.66 8.055 4.66 3.905 0 7.478-1.065 10.717-3.196l5.06 8.654c-4.749 3.373-10.23 5.06-16.443 5.06-6.568 0-11.65-1.842-15.244-5.526-3.595-3.727-5.392-8.321-5.392-13.78 0-5.591 1.841-10.229 5.525-13.912 3.772-3.684 8.609-5.526 14.512-5.526 5.547 0 10.141 1.665 13.78 4.993 3.639 3.24 5.458 7.722 5.458 13.447zm-19.238-8.188c-3.462 0-5.792 1.531-6.99 4.593h13.78c-1.11-3.062-3.373-4.593-6.79-4.593zM115.46 200.237l3.329 10.451c-3.551 1.997-7.634 2.996-12.249 2.996-9.453 0-14.18-5.193-14.18-15.577v-11.583h-5.458v-10.785h5.592v-13.114h12.981v13.114h11.183v10.785h-11.183v9.719c0 3.683 1.442 5.525 4.327 5.525 1.509 0 3.395-.51 5.658-1.531zm5.343-34.616c0-2.042.71-3.75 2.13-5.126 1.421-1.42 3.151-2.13 5.193-2.13 2.086 0 3.816.71 5.192 2.13 1.42 1.376 2.13 3.084 2.13 5.126 0 2.086-.71 3.816-2.13 5.192-1.376 1.376-3.106 2.064-5.192 2.064-2.086 0-3.839-.688-5.259-2.064-1.376-1.376-2.064-3.106-2.064-5.192zm13.913 10.118v37.013h-13.114v-37.013h13.114zm52.468-1.065c4.26 0 7.899 1.309 10.917 3.928 3.062 2.618 4.593 6.413 4.593 11.383v22.767H189.58v-20.104c0-1.953-.51-3.44-1.531-4.46-.976-1.021-2.308-1.531-3.994-1.531-1.864 0-3.373.577-4.527 1.73-1.109 1.154-1.664 2.73-1.664 4.727v19.638h-13.048v-20.104c0-1.864-.532-3.329-1.597-4.394-1.066-1.065-2.441-1.597-4.128-1.597-1.775 0-3.217.577-4.327 1.73-1.109 1.11-1.664 2.685-1.664 4.727v19.638h-13.048v-37.013h12.782v5.126c1.02-1.908 2.596-3.417 4.726-4.527a13.519 13.519 0 016.79-1.664c4.749.089 8.055 2.042 9.919 5.858 2.929-3.905 7.234-5.858 12.915-5.858zm58.543 18.573c0 1.553-.133 3.262-.399 5.126h-25.629c1.376 3.106 4.061 4.66 8.055 4.66 3.905 0 7.478-1.065 10.717-3.196l5.06 8.654c-4.749 3.373-10.23 5.06-16.443 5.06-6.568 0-11.65-1.842-15.244-5.526-3.595-3.727-5.392-8.321-5.392-13.779 0-5.592 1.841-10.23 5.525-13.913 3.772-3.684 8.609-5.526 14.512-5.526 5.547 0 10.141 1.665 13.78 4.993 3.639 3.24 5.458 7.722 5.458 13.447zm-19.238-8.188c-3.462 0-5.792 1.531-6.99 4.593h13.78c-1.109-3.062-3.373-4.593-6.79-4.593z" fill="#7B68EE"/><path d="M287.484 174.807c5.281 0 9.653 1.842 13.114 5.526 3.506 3.639 5.259 8.276 5.259 13.913 0 5.68-1.753 10.34-5.259 13.979-3.461 3.639-7.81 5.459-13.047 5.459-3.817 0-7.101-1.198-9.852-3.595v2.663h-12.582v-50.859h13.048v16.043c2.618-2.086 5.725-3.129 9.319-3.129zm5.06 19.372c0-2.086-.71-3.839-2.131-5.259-1.42-1.465-3.195-2.197-5.325-2.197-2.13 0-3.906.732-5.326 2.197-1.42 1.42-2.13 3.173-2.13 5.259 0 2.13.71 3.928 2.13 5.392 1.42 1.465 3.196 2.197 5.326 2.197 2.13 0 3.905-.732 5.325-2.197 1.421-1.464 2.131-3.262 2.131-5.392zm34.387 1.198l6.657-19.638H347.7l-14.112 36.081c-2.175 5.636-4.771 9.83-7.789 12.581-2.973 2.752-6.724 4.128-11.25 4.128-3.329 0-6.169-.755-8.521-2.264l2.663-10.651c1.686.888 3.328 1.332 4.926 1.332 2.884 0 5.192-1.642 6.923-4.926l-16.043-36.281h15.044l7.39 19.638zm84.573-20.703c4.26 0 7.9 1.309 10.917 3.928 3.063 2.618 4.594 6.413 4.594 11.383v22.767h-13.114v-20.104c0-1.953-.511-3.44-1.532-4.46-.976-1.021-2.307-1.531-3.994-1.531-1.864 0-3.373.577-4.526 1.73-1.11 1.154-1.665 2.73-1.665 4.727v19.638h-13.047v-20.104c0-1.864-.533-3.329-1.598-4.394s-2.441-1.597-4.127-1.597c-1.775 0-3.218.577-4.327 1.73-1.11 1.11-1.664 2.685-1.664 4.727v19.638h-13.048v-37.013h12.781v5.126c1.021-1.908 2.596-3.417 4.727-4.527a13.516 13.516 0 016.79-1.664c4.748.089 8.055 2.042 9.919 5.858 2.929-3.905 7.233-5.858 12.914-5.858zm47.693 3.795v-2.73h12.315v37.013h-12.315v-2.596c-3.018 2.352-6.479 3.528-10.385 3.528-5.281 0-9.608-1.864-12.981-5.592-3.373-3.772-5.059-8.432-5.059-13.98 0-5.503 1.709-10.096 5.126-13.779 3.417-3.684 7.722-5.526 12.914-5.526 4.083 0 7.545 1.221 10.385 3.662zm-7.855 23.299c2.13 0 3.928-.732 5.392-2.197 1.465-1.509 2.197-3.306 2.197-5.392 0-2.041-.732-3.794-2.197-5.259-1.464-1.465-3.262-2.197-5.392-2.197-2.13 0-3.928.732-5.392 2.197-1.42 1.465-2.13 3.218-2.13 5.259 0 2.086.732 3.883 2.196 5.392 1.465 1.465 3.24 2.197 5.326 2.197zm65.82 10.984h-15.378l-10.251-14.046-1.265 1.198v12.848H477.22v-50.859h13.048v23.499l9.852-9.653h15.71l-15.643 14.779 16.975 22.234zm.479-47.131c0-2.042.71-3.75 2.13-5.126 1.42-1.42 3.151-2.13 5.192-2.13 2.086 0 3.817.71 5.193 2.13 1.42 1.376 2.13 3.084 2.13 5.126 0 2.086-.71 3.816-2.13 5.192-1.376 1.376-3.107 2.064-5.193 2.064-2.086 0-3.839-.688-5.259-2.064-1.376-1.376-2.063-3.106-2.063-5.192zm13.913 10.118v37.013h-13.115v-37.013h13.115zm18.383 37.013H536.89v-37.013h12.781v5.126c.888-1.731 2.374-3.173 4.46-4.327 2.086-1.198 4.46-1.797 7.123-1.797 3.95 0 7.278 1.331 9.986 3.994 2.796 2.574 4.193 6.324 4.193 11.25v22.767h-13.114V193.38c0-2.13-.51-3.772-1.531-4.926-1.021-1.198-2.441-1.797-4.26-1.797-1.953 0-3.551.665-4.793 1.997-1.198 1.287-1.798 2.995-1.798 5.126v18.972zm57.925-34.483v-2.53h11.65v33.485c0 5.858-2.042 10.518-6.125 13.979-4.038 3.506-9.098 5.259-15.178 5.259-6.79 0-12.737-1.886-17.84-5.658l4.593-9.52c4.305 2.796 8.521 4.194 12.648 4.194 3.062 0 5.415-.71 7.057-2.13 1.642-1.376 2.463-3.195 2.463-5.459v-.133c-2.441 2.042-5.659 3.062-9.653 3.062-5.547 0-9.985-1.753-13.314-5.259-3.328-3.55-4.992-8.077-4.992-13.58 0-5.725 1.775-10.362 5.325-13.913 3.55-3.506 8.055-5.259 13.514-5.259 3.861 0 7.145 1.154 9.852 3.462zm-8.122 23.366c2.131 0 3.884-.71 5.259-2.13 1.421-1.465 2.131-3.262 2.131-5.393 0-2.085-.71-3.816-2.131-5.192-1.375-1.42-3.128-2.13-5.259-2.13-2.13 0-3.905.688-5.325 2.063-1.376 1.376-2.064 3.129-2.064 5.259 0 2.175.71 3.972 2.13 5.393 1.421 1.42 3.174 2.13 5.259 2.13zm-484.28 93.602l3.329 10.451c-3.551 1.997-7.634 2.996-12.249 2.996-9.453 0-14.18-5.193-14.18-15.577v-11.583h-5.458v-10.785h5.592v-13.114h12.981v13.114h11.183v10.785h-11.183v9.719c0 3.683 1.442 5.525 4.327 5.525 1.509 0 3.395-.51 5.658-1.531zm18.857 12.515h-13.048v-50.859h12.781v18.972c.888-1.731 2.375-3.173 4.461-4.327 2.085-1.198 4.46-1.797 7.123-1.797 3.949 0 7.278 1.331 9.985 3.994 2.796 2.574 4.194 6.324 4.194 11.25v22.767h-13.114V288.38c0-2.13-.511-3.772-1.531-4.926-1.021-1.198-2.441-1.797-4.261-1.797-1.953 0-3.55.665-4.793 1.997-1.198 1.287-1.797 2.995-1.797 5.126v18.972zm68.509-19.505c0 1.553-.133 3.262-.4 5.126h-25.629c1.376 3.106 4.061 4.66 8.055 4.66 3.905 0 7.478-1.065 10.718-3.196l5.059 8.654c-4.749 3.373-10.229 5.06-16.443 5.06-6.568 0-11.649-1.842-15.244-5.526-3.595-3.727-5.392-8.321-5.392-13.779 0-5.592 1.842-10.23 5.525-13.913 3.772-3.684 8.61-5.526 14.512-5.526 5.548 0 10.141 1.665 13.78 4.993 3.639 3.24 5.459 7.722 5.459 13.447zm-19.239-8.188c-3.461 0-5.791 1.531-6.99 4.593h13.78c-1.109-3.062-3.373-4.593-6.79-4.593zm58.757 27.626h-11.783l-12.581-36.946h13.78l5.791 20.038 6.324-20.038h9.253l6.325 20.038 5.791-20.038h13.78l-12.582 36.946H254.66l-6.125-17.774-6.191 17.774zm76.606-18.439c0 5.503-1.886 10.14-5.658 13.913-3.772 3.772-8.676 5.658-14.712 5.658s-10.939-1.886-14.712-5.658c-3.728-3.773-5.592-8.41-5.592-13.913 0-5.504 1.864-10.141 5.592-13.913 3.773-3.773 8.676-5.659 14.712-5.659s10.94 1.886 14.712 5.659c3.772 3.772 5.658 8.409 5.658 13.913zm-20.37 7.322c2.086 0 3.817-.688 5.192-2.063 1.421-1.421 2.131-3.196 2.131-5.326 0-2.041-.71-3.75-2.131-5.126-1.375-1.42-3.106-2.13-5.192-2.13-2.041 0-3.772.71-5.192 2.13-1.376 1.376-2.064 3.085-2.064 5.126 0 2.13.688 3.905 2.064 5.326 1.42 1.375 3.151 2.063 5.192 2.063zm37.503 11.184h-13.047v-37.013h12.581v4.394c2.397-3.595 5.614-5.392 9.653-5.392 1.686 0 3.262.355 4.726 1.065l-1.065 12.448c-1.775-.621-3.484-.932-5.126-.932-5.148 0-7.722 3.44-7.722 10.319v15.111zm29.51-50.859v50.859h-13.047v-50.859h13.047zm31.433 16.043v-16.043h13.114v50.859h-12.648v-2.596c-2.707 2.352-5.969 3.528-9.785 3.528-5.104 0-9.387-1.82-12.848-5.459-3.418-3.683-5.126-8.343-5.126-13.979 0-5.592 1.731-10.23 5.192-13.913 3.462-3.684 7.744-5.526 12.848-5.526 3.595 0 6.679 1.043 9.253 3.129zm.533 16.243c0-2.086-.71-3.839-2.13-5.259-1.421-1.465-3.196-2.197-5.326-2.197-2.13 0-3.905.732-5.326 2.197-1.42 1.42-2.13 3.173-2.13 5.259 0 2.13.71 3.928 2.13 5.392 1.421 1.465 3.196 2.197 5.326 2.197 2.13 0 3.905-.732 5.326-2.197 1.42-1.464 2.13-3.262 2.13-5.392zm80.701-19.505c4.26 0 7.899 1.309 10.917 3.928 3.062 2.618 4.593 6.413 4.593 11.383v22.767h-13.114v-20.104c0-1.953-.51-3.44-1.531-4.46-.976-1.021-2.308-1.531-3.994-1.531-1.864 0-3.373.577-4.527 1.73-1.109 1.154-1.664 2.73-1.664 4.727v19.638h-13.048v-20.104c0-1.864-.532-3.329-1.597-4.394s-2.441-1.597-4.128-1.597c-1.775 0-3.217.577-4.327 1.73-1.109 1.11-1.664 2.685-1.664 4.727v19.638h-13.047v-37.013h12.781v5.126c1.021-1.908 2.596-3.417 4.726-4.527 2.131-1.153 4.394-1.708 6.79-1.664 4.749.089 8.055 2.042 9.919 5.858 2.929-3.905 7.234-5.858 12.915-5.858zm59.875 19.572c0 5.503-1.886 10.14-5.658 13.913-3.773 3.772-8.677 5.658-14.712 5.658-6.036 0-10.94-1.886-14.712-5.658-3.728-3.773-5.592-8.41-5.592-13.913 0-5.504 1.864-10.141 5.592-13.913 3.772-3.773 8.676-5.659 14.712-5.659 6.035 0 10.939 1.886 14.712 5.659 3.772 3.772 5.658 8.409 5.658 13.913zm-20.37 7.322c2.086 0 3.816-.688 5.192-2.063 1.42-1.421 2.13-3.196 2.13-5.326 0-2.041-.71-3.75-2.13-5.126-1.376-1.42-3.106-2.13-5.192-2.13-2.042 0-3.772.71-5.193 2.13-1.375 1.376-2.063 3.085-2.063 5.126 0 2.13.688 3.905 2.063 5.326 1.421 1.375 3.151 2.063 5.193 2.063zm37.503 11.184h-13.047v-37.013h12.581v4.394c2.397-3.595 5.614-5.392 9.653-5.392 1.686 0 3.262.355 4.726 1.065l-1.065 12.448c-1.775-.621-3.484-.932-5.126-.932-5.148 0-7.722 3.44-7.722 10.319v15.111zm53.492-19.505c0 1.553-.133 3.262-.399 5.126h-25.63c1.376 3.106 4.061 4.66 8.055 4.66 3.906 0 7.478-1.065 10.718-3.196l5.059 8.654c-4.748 3.373-10.229 5.06-16.442 5.06-6.568 0-11.65-1.842-15.245-5.526-3.594-3.727-5.392-8.321-5.392-13.779 0-5.592 1.842-10.23 5.525-13.913 3.773-3.684 8.61-5.526 14.513-5.526 5.547 0 10.14 1.665 13.779 4.993 3.64 3.24 5.459 7.722 5.459 13.447zm-19.238-8.188c-3.462 0-5.792 1.531-6.99 4.593h13.78c-1.11-3.062-3.373-4.593-6.79-4.593zm-477.657 84.748c5.237 0 9.542 1.864 12.915 5.592 3.373 3.684 5.059 8.277 5.059 13.78 0 5.459-1.686 10.074-5.059 13.846-3.373 3.773-7.656 5.659-12.848 5.659-3.905 0-7.212-1.154-9.919-3.462v17.774H88.899v-52.257h12.914v2.73c2.841-2.441 6.191-3.662 10.052-3.662zm-2.662 26.894c2.13 0 3.883-.688 5.259-2.063 1.375-1.42 2.063-3.196 2.063-5.326 0-2.13-.688-3.883-2.063-5.259-1.376-1.42-3.129-2.13-5.259-2.13-2.086 0-3.839.71-5.259 2.13-1.376 1.42-2.064 3.173-2.064 5.259 0 2.086.688 3.839 2.064 5.259 1.42 1.42 3.173 2.13 5.259 2.13zm37.856 11.051h-13.048v-37.013h12.582v4.394c2.396-3.595 5.614-5.392 9.652-5.392 1.687 0 3.262.355 4.727 1.065l-1.066 12.448c-1.775-.621-3.483-.932-5.125-.932-5.148 0-7.722 3.44-7.722 10.319v15.111zm54.823-18.506c0 5.503-1.886 10.14-5.659 13.913-3.772 3.772-8.676 5.658-14.711 5.658-6.036 0-10.94-1.886-14.712-5.658-3.728-3.773-5.592-8.41-5.592-13.913 0-5.504 1.864-10.141 5.592-13.913 3.772-3.773 8.676-5.659 14.712-5.659 6.035 0 10.939 1.886 14.711 5.659 3.773 3.772 5.659 8.409 5.659 13.913zm-20.37 7.322c2.085 0 3.816-.688 5.192-2.063 1.42-1.421 2.13-3.196 2.13-5.326 0-2.041-.71-3.75-2.13-5.126-1.376-1.42-3.107-2.13-5.192-2.13-2.042 0-3.773.71-5.193 2.13-1.376 1.376-2.063 3.085-2.063 5.126 0 2.13.687 3.905 2.063 5.326 1.42 1.375 3.151 2.063 5.193 2.063zm50.218-23.632v-16.043h13.114v50.859h-12.648v-2.596c-2.707 2.352-5.969 3.528-9.786 3.528-5.104 0-9.386-1.82-12.848-5.459-3.417-3.683-5.126-8.343-5.126-13.979 0-5.592 1.731-10.23 5.193-13.913 3.461-3.684 7.744-5.526 12.848-5.526 3.594 0 6.679 1.043 9.253 3.129zm.532 16.243c0-2.086-.71-3.839-2.13-5.259-1.42-1.465-3.195-2.197-5.325-2.197-2.131 0-3.906.732-5.326 2.197-1.42 1.42-2.13 3.173-2.13 5.259 0 2.13.71 3.928 2.13 5.392 1.42 1.465 3.195 2.197 5.326 2.197 2.13 0 3.905-.732 5.325-2.197 1.42-1.464 2.13-3.262 2.13-5.392zm36.006 19.505c-5.725 0-10.207-1.509-13.447-4.527-3.195-3.018-4.793-7.3-4.793-12.848v-20.57h13.114v20.77c0 1.553.466 2.818 1.398 3.794.932.977 2.175 1.465 3.728 1.465 1.598 0 2.863-.466 3.795-1.398.932-.976 1.398-2.263 1.398-3.861v-20.77h13.114v20.57c0 5.548-1.62 9.83-4.86 12.848-3.195 3.018-7.677 4.527-13.447 4.527zm41.676-.133c-5.858 0-10.607-1.798-14.246-5.392-3.639-3.64-5.458-8.299-5.458-13.98 0-5.681 1.819-10.318 5.458-13.913 3.639-3.639 8.432-5.459 14.379-5.459 3.994 0 7.567.954 10.718 2.863 3.151 1.864 5.525 4.593 7.123 8.188l-10.385 5.392c-1.731-2.885-4.105-4.327-7.123-4.327-2.13 0-3.883.688-5.259 2.064-1.331 1.375-1.997 3.106-1.997 5.192 0 2.13.666 3.905 1.997 5.326 1.376 1.375 3.107 2.063 5.193 2.063 1.553 0 2.973-.399 4.26-1.198 1.287-.799 2.219-1.842 2.796-3.129l10.451 6.191c-1.642 3.195-4.038 5.681-7.189 7.456-3.151 1.775-6.724 2.663-10.718 2.663zm47.844-13.314l3.329 10.451c-3.551 1.997-7.634 2.996-12.249 2.996-9.453 0-14.179-5.193-14.179-15.577v-11.583h-5.459v-10.785h5.592v-13.114h12.981v13.114h11.183v10.785h-11.183v9.719c0 3.683 1.442 5.525 4.327 5.525 1.509 0 3.395-.51 5.658-1.531zm5.343-34.616c0-2.042.71-3.75 2.13-5.126 1.421-1.42 3.151-2.13 5.193-2.13 2.086 0 3.816.71 5.192 2.13 1.42 1.376 2.13 3.084 2.13 5.126 0 2.086-.71 3.816-2.13 5.192-1.376 1.376-3.106 2.064-5.192 2.064-2.086 0-3.839-.688-5.259-2.064-1.376-1.376-2.064-3.106-2.064-5.192zm13.913 10.118v37.013H363.93v-37.013h13.114zm23.377 19.572l6.59-19.572h14.313l-15.844 36.946h-10.651l-15.71-36.946h14.379l6.923 19.572zm58.77-2.064c0 1.553-.133 3.262-.399 5.126h-25.629c1.376 3.106 4.061 4.66 8.055 4.66 3.905 0 7.478-1.065 10.717-3.196l5.06 8.654c-4.749 3.373-10.23 5.06-16.443 5.06-6.568 0-11.65-1.842-15.244-5.526-3.595-3.727-5.392-8.321-5.392-13.779 0-5.592 1.841-10.23 5.525-13.913 3.772-3.684 8.609-5.526 14.512-5.526 5.547 0 10.141 1.665 13.78 4.993 3.639 3.24 5.458 7.722 5.458 13.447zm-19.238-8.188c-3.462 0-5.792 1.531-6.99 4.593h13.78c-1.11-3.062-3.373-4.593-6.79-4.593zm28.949 28.758c-1.998 0-3.684-.644-5.06-1.931-1.331-1.331-1.997-2.995-1.997-4.992 0-1.909.688-3.506 2.064-4.793 1.376-1.332 3.04-1.997 4.993-1.997 1.863 0 3.439.665 4.726 1.997 1.331 1.331 1.997 2.929 1.997 4.793 0 1.952-.666 3.594-1.997 4.926-1.287 1.331-2.863 1.997-4.726 1.997z" fill="#292D34"/></g><defs><filter id="filter0_d" x=".073" y=".715" width="707.854" height="514.803" filterUnits="userSpaceOnUse" color-interpolation-filters="sRGB"><feFlood flood-opacity="0" result="BackgroundImageFix"/><feColorMatrix in="SourceAlpha" values="0 0 0 0 0 0 0 0 0 0 0 0 0 0 0 0 0 0 127 0"/><feOffset dy="16.642"/><feGaussianBlur stdDeviation="24.963"/><feColorMatrix values="0 0 0 0 0.0627451 0 0 0 0 0.117647 0 0 0 0 0.211765 0 0 0 0.15 0"/><feBlend in2="BackgroundImageFix" result="effect1_dropShadow"/><feBlend in="SourceGraphic" in2="effect1_dropShadow" result="shape"/></filter></defs></svg>