<svg xmlns="http://www.w3.org/2000/svg" xmlns:xlink="http://www.w3.org/1999/xlink" viewBox="0 0 500.21 499"><defs><clipPath id="a" transform="translate(0.71)"><rect y="123" width="500" height="252.75" style="fill:none"/></clipPath></defs><title>Productdb logo klein vierkant</title><rect width="499.71" height="499" style="fill:none"/><rect width="499.71" height="499" style="fill:none"/><g style="clip-path:url(#a)"><g style="clip-path:url(#a)"><path d="M308.14,127.24v87.07c-11.09-22.18-33.28-32.17-56.84-32.17-38.26,0-68.76,25.52-68.76,70.7,0,45.51,30.21,70.74,68.5,70.74,23.29,0,45.74-11.66,57.1-32.45v30.24h13.33V127.24Zm-56.3,183c-30.77,0-56-19.41-56-57.43,0-38.53,25.23-57.67,56-57.67,31.64,0,56,23.29,56,57.4s-23.85,57.7-56,57.7" transform="translate(0.71)" style="fill:#fff"/><path d="M430.73,182.14c-23.58,0-45.77,10-56.86,32.17V127.24h-13.3V321.37h13.3V291.13c11.39,20.79,33.84,32.45,57.13,32.45,38.29,0,68.5-25.23,68.5-70.74,0-45.18-30.51-70.7-68.77-70.7m-.56,128.13c-32.15,0-56-23.58-56-57.7s24.4-57.4,56-57.4c30.8,0,56,19.14,56,57.67,0,38-25.23,57.43-56,57.43" transform="translate(0.71)" style="fill:#fff"/><path d="M141.27,211.17c-.43-.85-1-1.6-1.38-2.35-3,.86-6.07,1.6-9.27,2.35A281.92,281.92,0,0,1,66,218.3,286.34,286.34,0,0,1,2.4,211.49v26.3c18.21,4.48,39.72,7.14,63.58,7.14,28.11,0,52.82-3.62,73-9.59,3.51-1.06,6.81-2.13,10-3.3a70.64,70.64,0,0,0-7.67-20.87m9.27,33.76c-3.41,1.17-6.82,2.23-10.44,3.3-21.51,6-46.86,9.48-74.12,9.48A285.72,285.72,0,0,1,2.4,250.89V280.6c18.21,4.48,39.72,7.14,63.58,7.14,26.09,0,49.2-3.2,68.48-8.31,4.15-1.17,8.09-2.34,11.92-3.72a82.06,82.06,0,0,0,4.37-26.95v-.53a17.38,17.38,0,0,0-.21-3.3M66,300.52A285.72,285.72,0,0,1,2.4,293.7v80.41H36.27V300.84c9.69,15,31,19.38,45.47,19.38,24.6,0,43.34-9.9,55-25.77l2.24-3.2c-4.16,1.18-8.42,2.24-12.89,3.2A286.11,286.11,0,0,1,66,300.52m45.05-117c-1.6-.75-3.31-1.39-5-2a74.44,74.44,0,0,0-25.35-4.26,58,58,0,0,0-18.21,3,2.41,2.41,0,0,0-.85.21c-9.8,3.41-19,9.37-25.34,18.64l-1.92-16-.11-1.28L34,180.28H2.4v18.11c18.21,4.47,39.72,7.13,63.58,7.13A275.61,275.61,0,0,0,122.63,200c3-.64,6-1.28,8.84-2A62.44,62.44,0,0,0,111,183.48" transform="translate(0.71)" style="fill:#1e71b8"/></g></g></svg>