  <svg
                    width="200px"
                    baseProfile="tiny"
                    xmlns="http://www.w3.org/2000/svg"
                    viewBox="0 0 8324.8 1630.9"
                    xmlSpace="preserve"
                >
                    <g stroke="none" strokeWidth="1" fill="none" fillRule="evenodd">
                    <g fillRule="nonzero">
                        <g>
                        <path d="M505.7 384.4c-94 0-204.7 40.2-268.4 132.4l-13.5-114H32.5v1172.5h204.7v-442.8c58.6 90.6 187.8 117.4 275.1 117.4 265 0 417.6-191.2 417.6-432.8.1-243.3-169.3-432.7-424.2-432.7zM490.5 1052c-139.3 0-234.9-105.7-234.9-234.9s87.1-234.9 234.9-234.9c147.6 0 234.9 105.7 234.9 234.9S629.8 1052 490.5 1052zM1545.5 382.2c-8.8-.8-17.6-1.1-26.5-1.1-24.9 0-50.2 1.3-74.8 6-58.1 10.7-113.7 39.6-158.5 111.4l-15.1-95.6h-189.4V1230h204.6V793.7c0-120.5 61.6-181.4 140.4-201.6 21-5.5 43.3-8.1 66-8.1 7 0 13.7.2 20 .7 55.2 3.4 90.1 21.5 127.5 53.1l43.8-84.4 38.4-74.1 10.1-19.4c-40.6-40.6-110.8-71.7-186.5-77.7z" fill="#fff" />
                        </g>
                        <g fill="#1D71B8">
                            <path
                                fill="#1D71B8"
                                class="blue"
                                d="M2198.2 386.1c-136.5 0-246.3 52.3-320.4 135.5 94.6 19.1 203.6 30.3 323 30.3 118.6 0 226.7-11.1 320.9-29.8-75.4-83.6-186.8-136-323.5-136zm2.6 747.4c-120.4 0-232.6-10.6-332.6-29.8 73.9 88.8 187.3 144.6 331.6 144.6s258.2-55.9 332.4-144.5c-99.6 19.3-211.5 29.7-331.4 29.7zm0-257.2c-161.2 0-308.2-18.9-430.1-52.3.7 65.1 13.7 126.7 37.6 181.8 109.3 28.5 242.7 46.3 392.5 46.3 149.7 0 283.1-17.8 392.2-46.3 24.1-55.1 37.1-116.6 37.9-181.8-121.9 33.4-268.8 52.3-430.1 52.3zM2574.5 595c-109.8 24.6-236.5 38.3-373.6 38.3-137.6 0-264.8-13.8-374.9-38.4-24.4 44-41 93-49.3 145.1 114.7 33.4 259.6 54.9 424.3 54.9 164.5 0 309.3-21.5 424-54.9-8.5-52.1-25.6-101.2-50.5-145z"
                            />
                        </g>
                        <g>
                        <path d="M3426.3 57.2v458c-48.7-85.5-184.5-132.6-271.8-132.6-104.7 0-197.9 27.9-269.9 82.6-.8.7-1.6 1.3-2.6 2-67.3 52.4-115.5 128.7-136.5 228.3-6.4 29.6-10.3 61.2-11.6 94.8-.3 8.3-.5 16.6-.5 25.1 0 48.7 5.9 93.8 16.9 135 7.3 27.7 16.9 53.6 28.8 77.7 68.9 141 209.6 220.2 380.3 220.2 100.7 0 202.9-33.6 266.8-132.6l13.4 114.2h191.2V57.2h-204.5zm-253.4 1001.5c-104.1 0-191.2-62.7-222.3-160.9-8.1-25.2-12.5-52.9-12.5-82.4 0-7 .2-13.8.7-20.5 9.1-137.1 109.5-221 234.2-221 129.2 0 239.9 97.4 239.9 241.5-.1 149.3-110.9 243.3-240 243.3zM4411 402.8v422.7c0 125.9-85.7 231.6-211.4 231.6-130.8 0-199.7-95.6-199.7-221.5V402.8h-204.6v434.4c0 256.7 144.3 406 342.2 406 115.8 0 194.6-40.2 280.1-124.1l13.4 112.4h183V402.8h-203zM5367.2 990c-50.3 50.3-115.8 68.7-181.3 68.7-127.4 0-234.9-83.9-234.9-241.5 0-144.3 100.7-245 238.3-245 57 0 117.4 21.8 166.1 65.5l129.2-135.8c-90.6-88.9-181.3-122.5-298.7-122.5-239.7 0-439.4 144.1-439.4 437.8 0 293.5 199.7 437.8 439.4 437.8 122.5 0 223.1-37 318.7-130.8L5367.2 990zM6088.6 1030.2c-30.3 15.1-67.1 25.1-99 25.1-63.7 0-107.3-38.6-107.3-117.4V580.7H6112V404.5h-228.2V169.6l-204.6 21.8v213h-154.4v176.2h154.4v357.2c0 206.4 117.4 308.8 296.9 302 62.1-1.6 110.6-11.7 169.4-35.2l-56.9-174.4z" fill="#fff"/>
                        </g>
                        <g fill="#1D71B8">
                            <path
                                fill="#1D71B8"
                                class="blue"
                                d="M7134.7 55.6v526.7c-67.1-134.2-201.3-194.6-343.8-194.6-231.4 0-416 154.4-416 427.7 0 275.3 182.7 427.9 414.3 427.9 140.9 0 276.7-70.5 345.5-196.3v182.9h80.6V55.6h-80.6zm-340.5 1107.2c-186.2 0-338.8-117.4-338.8-347.4 0-233.1 152.6-348.9 338.8-348.9 191.4 0 338.9 140.9 338.9 347.2 0 206.4-144.3 349.1-338.9 349.1zM7876.3 387.7c-142.7 0-276.9 60.4-344 194.6V55.6h-80.5v1174.3h80.5V1047c68.9 125.7 204.7 196.3 345.6 196.3 231.6 0 414.3-152.6 414.3-427.9.1-273.3-184.5-427.7-415.9-427.7zm-3.4 775.1c-194.5 0-338.8-142.7-338.8-349 0-206.4 147.6-347.2 338.8-347.2 186.3 0 338.9 115.8 338.9 348.9 0 229.9-152.6 347.3-338.9 347.3z"
                            />
                        </g>
                        </g>
                    </g>
                </svg>